<?xml version="1.0" encoding="UTF-8" standalone="no"?>
<!DOCTYPE svg PUBLIC "-//W3C//DTD SVG 1.1//EN"
 "http://www.w3.org/Graphics/SVG/1.1/DTD/svg11.dtd">
<!-- Generated by graphviz version 2.46.0 (20210118.1747)
 -->
<!-- Title: G Pages: 1 -->
<svg width="350pt" height="207pt"
 viewBox="0.00 0.00 349.98 207.00" xmlns="http://www.w3.org/2000/svg" xmlns:xlink="http://www.w3.org/1999/xlink">
<g id="graph0" class="graph" transform="scale(1 1) rotate(0) translate(4 203)">
<title>G</title>
<polygon fill="white" stroke="transparent" points="-4,4 -4,-203 345.98,-203 345.98,4 -4,4"/>
<g id="clust1" class="cluster">
<title>cluster_deployment</title>
<polygon fill="none" stroke="black" points="197.59,-8 197.59,-191 333.98,-191 333.98,-8 197.59,-8"/>
<text text-anchor="middle" x="265.78" y="-175.8" font-family="Times New Roman,serif" font-size="14.00">Deployment</text>
<text text-anchor="middle" x="265.78" y="-160.8" font-family="Times New Roman,serif" font-size="14.00">:80</text>
</g>
<g id="clust2" class="cluster">
<title>cluster_replicat_set</title>
<polygon fill="none" stroke="black" points="205.59,-16 205.59,-145 325.98,-145 325.98,-16 205.59,-16"/>
<text text-anchor="middle" x="265.78" y="-129.8" font-family="Times New Roman,serif" font-size="14.00">ReplicaSet</text>
</g>
<g id="clust3" class="cluster">
<title>cluster_pod</title>
<polygon fill="none" stroke="black" points="213.59,-24 213.59,-114 317.98,-114 317.98,-24 213.59,-24"/>
<text text-anchor="middle" x="265.78" y="-98.8" font-family="Times New Roman,serif" font-size="14.00">Pod</text>
<text text-anchor="middle" x="265.78" y="-83.8" font-family="Times New Roman,serif" font-size="14.00">:80</text>
</g>
<g id="clust4" class="cluster">
<title>cluster_service</title>
<polygon fill="none" stroke="black" points="100.79,-24 100.79,-99 189.59,-99 189.59,-24 100.79,-24"/>
<text text-anchor="middle" x="145.19" y="-83.8" font-family="Times New Roman,serif" font-size="14.00">Service</text>
</g>
<!-- container -->
<g id="node1" class="node">
<title>container</title>
<ellipse fill="none" stroke="black" cx="265.78" cy="-50" rx="44.39" ry="18"/>
<text text-anchor="middle" x="265.78" y="-46.3" font-family="Times New Roman,serif" font-size="14.00">container</text>
</g>
<!-- service -->
<g id="node2" class="node">
<title>service</title>
<ellipse fill="none" stroke="black" cx="145.19" cy="-50" rx="36.29" ry="18"/>
<text text-anchor="middle" x="145.19" y="-46.3" font-family="Times New Roman,serif" font-size="14.00">service</text>
</g>
<!-- service&#45;&gt;container -->
<g id="edge2" class="edge">
<title>service&#45;&gt;container</title>
<path fill="none" stroke="black" d="M181.77,-50C190.99,-50 201.12,-50 211.04,-50"/>
<polygon fill="black" stroke="black" points="211.26,-53.5 221.26,-50 211.26,-46.5 211.26,-53.5"/>
</g>
<!-- ingress -->
<g id="node3" class="node">
<title>ingress</title>
<ellipse fill="none" stroke="black" cx="36.4" cy="-50" rx="36.29" ry="18"/>
<text text-anchor="middle" x="36.4" y="-46.3" font-family="Times New Roman,serif" font-size="14.00">ingress</text>
</g>
<!-- ingress&#45;&gt;service -->
<g id="edge1" class="edge">
<title>ingress&#45;&gt;service</title>
<path fill="none" stroke="black" d="M72.96,-50C81.15,-50 89.98,-50 98.54,-50"/>
<polygon fill="black" stroke="black" points="98.78,-53.5 108.78,-50 98.78,-46.5 98.78,-53.5"/>
</g>
</g>
</svg>
