<?xml version="1.0" encoding="UTF-8" standalone="no"?>
<!DOCTYPE svg PUBLIC "-//W3C//DTD SVG 1.1//EN"
 "http://www.w3.org/Graphics/SVG/1.1/DTD/svg11.dtd">
<!-- Generated by graphviz version 2.46.0 (20210118.1747)
 -->
<!-- Title: G Pages: 1 -->
<svg width="584pt" height="246pt"
 viewBox="0.00 0.00 583.66 246.00" xmlns="http://www.w3.org/2000/svg" xmlns:xlink="http://www.w3.org/1999/xlink">
<g id="graph0" class="graph" transform="scale(1 1) rotate(0) translate(4 242)">
<title>G</title>
<polygon fill="white" stroke="transparent" points="-4,4 -4,-242 579.66,-242 579.66,4 -4,4"/>
<g id="clust1" class="cluster">
<title>cluster_k8s</title>
<polygon fill="none" stroke="black" points="281.08,-8 281.08,-230 567.66,-230 567.66,-8 281.08,-8"/>
<text text-anchor="middle" x="424.37" y="-214.8" font-family="Times New Roman,serif" font-size="14.00">k8s</text>
</g>
<g id="clust2" class="cluster">
<title>cluster_deployment</title>
<polygon fill="none" stroke="black" points="423.27,-16 423.27,-199 559.66,-199 559.66,-16 423.27,-16"/>
<text text-anchor="middle" x="491.47" y="-183.8" font-family="Times New Roman,serif" font-size="14.00">Deployment</text>
<text text-anchor="middle" x="491.47" y="-168.8" font-family="Times New Roman,serif" font-size="14.00">:80</text>
</g>
<g id="clust3" class="cluster">
<title>cluster_replicat_set</title>
<polygon fill="none" stroke="black" points="431.27,-24 431.27,-153 551.66,-153 551.66,-24 431.27,-24"/>
<text text-anchor="middle" x="491.47" y="-137.8" font-family="Times New Roman,serif" font-size="14.00">ReplicaSet</text>
</g>
<g id="clust4" class="cluster">
<title>cluster_pod</title>
<polygon fill="none" stroke="black" points="439.27,-32 439.27,-122 543.66,-122 543.66,-32 439.27,-32"/>
<text text-anchor="middle" x="491.47" y="-106.8" font-family="Times New Roman,serif" font-size="14.00">Pod</text>
<text text-anchor="middle" x="491.47" y="-91.8" font-family="Times New Roman,serif" font-size="14.00">:80</text>
</g>
<!-- LoadBalancer -->
<g id="node1" class="node">
<title>LoadBalancer</title>
<ellipse fill="none" stroke="black" cx="350.18" cy="-58" rx="61.19" ry="18"/>
<text text-anchor="middle" x="350.18" y="-54.3" font-family="Times New Roman,serif" font-size="14.00">LoadBalancer</text>
</g>
<!-- container -->
<g id="node2" class="node">
<title>container</title>
<ellipse fill="none" stroke="black" cx="491.47" cy="-58" rx="44.39" ry="18"/>
<text text-anchor="middle" x="491.47" y="-54.3" font-family="Times New Roman,serif" font-size="14.00">container</text>
</g>
<!-- LoadBalancer&#45;&gt;container -->
<g id="edge3" class="edge">
<title>LoadBalancer&#45;&gt;container</title>
<path fill="none" stroke="black" d="M411.46,-58C419.84,-58 428.39,-58 436.64,-58"/>
<polygon fill="black" stroke="black" points="436.88,-61.5 446.88,-58 436.88,-54.5 436.88,-61.5"/>
</g>
<!-- zibou.ovh -->
<g id="node3" class="node">
<title>zibou.ovh</title>
<ellipse fill="none" stroke="black" cx="46.8" cy="-58" rx="46.59" ry="18"/>
<text text-anchor="middle" x="46.8" y="-54.3" font-family="Times New Roman,serif" font-size="14.00">zibou.ovh</text>
</g>
<!-- 34.36.146.248 -->
<g id="node4" class="node">
<title>34.36.146.248</title>
<ellipse fill="none" stroke="black" cx="191.34" cy="-58" rx="61.99" ry="18"/>
<text text-anchor="middle" x="191.34" y="-54.3" font-family="Times New Roman,serif" font-size="14.00">34.36.146.248</text>
</g>
<!-- zibou.ovh&#45;&gt;34.36.146.248 -->
<g id="edge1" class="edge">
<title>zibou.ovh&#45;&gt;34.36.146.248</title>
<path fill="none" stroke="black" d="M93.68,-58C101.87,-58 110.57,-58 119.27,-58"/>
<polygon fill="black" stroke="black" points="119.45,-61.5 129.45,-58 119.45,-54.5 119.45,-61.5"/>
</g>
<!-- 34.36.146.248&#45;&gt;LoadBalancer -->
<g id="edge2" class="edge">
<title>34.36.146.248&#45;&gt;LoadBalancer</title>
<path fill="none" stroke="black" d="M253.42,-58C261.74,-58 270.33,-58 278.79,-58"/>
<polygon fill="black" stroke="black" points="279.03,-61.5 289.03,-58 279.03,-54.5 279.03,-61.5"/>
</g>
</g>
</svg>
